<svg width="400" height="300" viewBox="0 0 400 300" fill="none" xmlns="http://www.w3.org/2000/svg">
  <defs>
    <linearGradient id="viennaGradient" x1="0%" y1="0%" x2="100%" y2="100%">
      <stop offset="0%" style="stop-color:#7C2D12;stop-opacity:1" />
      <stop offset="100%" style="stop-color:#DC2626;stop-opacity:1" />
    </linearGradient>
  </defs>
  
  <!-- Sky background -->
  <rect width="400" height="300" fill="url(#viennaGradient)"/>
  
  <!-- St. Stephen's Cathedral -->
  <rect x="180" y="120" width="40" height="80" fill="#1F2937" opacity="0.9"/>
  <rect x="195" y="60" width="10" height="140" fill="#1F2937" opacity="0.9"/>
  <polygon points="195,60 200,40 205,60" fill="#6B7280" opacity="0.8"/>
  
  <!-- Schönbrunn Palace outline -->
  <rect x="80" y="160" width="80" height="40" fill="#1F2937" opacity="0.8"/>
  <rect x="100" y="140" width="40" height="60" fill="#1F2937" opacity="0.8"/>
  
  <!-- Imperial buildings -->
  <rect x="250" y="150" width="50" height="150" fill="#1F2937" opacity="0.7"/>
  <rect x="260" y="130" width="30" height="170" fill="#1F2937" opacity="0.7"/>
  
  <!-- Classical columns -->
  <rect x="270" y="140" width="3" height="30" fill="#E5E7EB" opacity="0.8"/>
  <rect x="276" y="140" width="3" height="30" fill="#E5E7EB" opacity="0.8"/>
  <rect x="282" y="140" width="3" height="30" fill="#E5E7EB" opacity="0.8"/>
  
  <!-- Dome -->
  <circle cx="320" cy="120" r="20" fill="#6B7280" opacity="0.8"/>
  <rect x="315" y="100" width="10" height="20" fill="#6B7280" opacity="0.8"/>
  
  <!-- Building windows -->
  <rect x="270" y="180" width="6" height="8" fill="#FCD34D" opacity="0.8"/>
  <rect x="280" y="180" width="6" height="8" fill="#FCD34D" opacity="0.8"/>
  
  <text x="200" y="280" text-anchor="middle" fill="white" font-family="Arial, sans-serif" font-size="20" font-weight="bold">Vienna, Austria</text>
</svg>
