<svg width="400" height="300" viewBox="0 0 400 300" fill="none" xmlns="http://www.w3.org/2000/svg">
  <defs>
    <linearGradient id="cityGradient" x1="0%" y1="0%" x2="100%" y2="100%">
      <stop offset="0%" style="stop-color:#4F46E5;stop-opacity:1" />
      <stop offset="100%" style="stop-color:#7C3AED;stop-opacity:1" />
    </linearGradient>
  </defs>
  
  <!-- Sky background -->
  <rect width="400" height="300" fill="url(#cityGradient)"/>
  
  <!-- Mountain silhouette -->
  <path d="M0 200 L80 120 L160 180 L240 100 L320 160 L400 140 L400 300 L0 300 Z" fill="#374151" opacity="0.6"/>
  
  <!-- City buildings -->
  <rect x="50" y="180" width="30" height="120" fill="#1F2937" opacity="0.8"/>
  <rect x="100" y="160" width="25" height="140" fill="#1F2937" opacity="0.8"/>
  <rect x="140" y="190" width="35" height="110" fill="#1F2937" opacity="0.8"/>
  <rect x="190" y="170" width="28" height="130" fill="#1F2937" opacity="0.8"/>
  <rect x="240" y="155" width="32" height="145" fill="#1F2937" opacity="0.8"/>
  <rect x="290" y="185" width="30" height="115" fill="#1F2937" opacity="0.8"/>
  <rect x="340" y="175" width="25" height="125" fill="#1F2937" opacity="0.8"/>
  
  <!-- Building windows -->
  <rect x="55" y="190" width="4" height="6" fill="#FCD34D" opacity="0.8"/>
  <rect x="65" y="190" width="4" height="6" fill="#FCD34D" opacity="0.8"/>
  <rect x="55" y="210" width="4" height="6" fill="#FCD34D" opacity="0.8"/>
  <rect x="65" y="210" width="4" height="6" fill="#FCD34D" opacity="0.8"/>
  
  <rect x="105" y="175" width="4" height="6" fill="#FCD34D" opacity="0.8"/>
  <rect x="115" y="175" width="4" height="6" fill="#FCD34D" opacity="0.8"/>
  <rect x="105" y="195" width="4" height="6" fill="#FCD34D" opacity="0.8"/>
  <rect x="115" y="195" width="4" height="6" fill="#FCD34D" opacity="0.8"/>
  
  <rect x="250" y="170" width="4" height="6" fill="#FCD34D" opacity="0.8"/>
  <rect x="260" y="170" width="4" height="6" fill="#FCD34D" opacity="0.8"/>
  <rect x="250" y="190" width="4" height="6" fill="#FCD34D" opacity="0.8"/>
  <rect x="260" y="190" width="4" height="6" fill="#FCD34D" opacity="0.8"/>
  
  <!-- Stars -->
  <circle cx="80" cy="40" r="2" fill="white" opacity="0.8"/>
  <circle cx="150" cy="25" r="1.5" fill="white" opacity="0.6"/>
  <circle cx="320" cy="35" r="2" fill="white" opacity="0.8"/>
  <circle cx="280" cy="50" r="1" fill="white" opacity="0.5"/>
  
  <!-- European text overlay -->
  <text x="200" y="250" text-anchor="middle" fill="white" font-family="Arial, sans-serif" font-size="18" font-weight="bold" opacity="0.9">European Destination</text>
</svg>
